<svg
                xmlns="http://www.w3.org/2000/svg"
                width="20"
                height="20"
                viewBox="0 0 20 20"
                fill="none"
              >
                <path
                  fill-rule="evenodd"
                  clip-rule="evenodd"
                  d="M13.4214 1.66663C13.4955 2.63418 13.1895 3.59251 12.5685 4.3381C11.9659 5.08756 11.0529 5.51924 10.0913 5.50934C10.0301 4.56964 10.345 3.64417 10.9666 2.93677C11.5961 2.21979 12.4726 1.76629 13.4214 1.66663ZM16.4623 7.35243C15.3562 8.03247 14.6755 9.23176 14.6588 10.5301C14.6604 11.9991 15.5401 13.3247 16.893 13.8969C16.6328 14.7422 16.2406 15.541 15.7309 16.2637C15.0464 17.2877 14.3287 18.288 13.1896 18.3065C12.6479 18.319 12.2822 18.1632 11.9011 18.0009C11.5036 17.8316 11.0894 17.6551 10.4413 17.6551C9.75393 17.6551 9.32119 17.8372 8.90384 18.0129C8.54317 18.1647 8.19399 18.3116 7.70189 18.332C6.61707 18.3722 5.78801 17.2392 5.07862 16.2249C3.66077 14.1534 2.55671 10.3872 4.03686 7.82454C4.73191 6.57555 6.03149 5.78298 7.46011 5.73683C8.07537 5.72417 8.66576 5.96131 9.18337 6.16922C9.57922 6.32822 9.93251 6.47012 10.2218 6.47012C10.4761 6.47012 10.8195 6.33382 11.2198 6.17497C11.8502 5.92475 12.6217 5.61858 13.4078 5.70109C14.6293 5.73931 15.7614 6.3513 16.4623 7.35243Z"
                  fill="white"
                />
              </svg>